<?xml version="1.0" standalone="no"?>
<!DOCTYPE svg PUBLIC "-//W3C//DTD SVG 20010904//EN"
 "http://www.w3.org/TR/2001/REC-SVG-20010904/DTD/svg10.dtd">
<svg version="1.0" xmlns="http://www.w3.org/2000/svg"
 width="1024.000000pt" height="1024.000000pt" viewBox="0 0 1024.000000 1024.000000"
 preserveAspectRatio="xMidYMid meet">
<metadata>
Created by potrace 1.14, written by Peter Selinger 2001-2017
</metadata>
<g transform="translate(0.000000,1024.000000) scale(0.100000,-0.100000)"
fill="#000000" stroke="none">
<path d="M4947 10234 c-1 -1 -57 -5 -124 -8 -67 -3 -136 -8 -155 -10 -18 -3
-60 -8 -93 -11 -33 -3 -71 -7 -85 -9 -14 -2 -49 -7 -79 -11 -30 -3 -61 -8 -70
-10 -9 -1 -36 -6 -61 -10 -25 -4 -54 -9 -65 -11 -11 -2 -33 -6 -50 -9 -201
-34 -535 -125 -765 -208 -887 -319 -1649 -860 -2254 -1600 -53 -65 -122 -155
-154 -199 -31 -44 -70 -99 -86 -122 -48 -67 -186 -286 -186 -294 0 -4 -5 -13
-12 -20 -48 -48 -276 -519 -368 -762 -78 -207 -178 -533 -206 -675 -5 -28 -10
-49 -29 -140 -9 -44 -18 -92 -20 -107 -2 -15 -6 -35 -9 -45 -3 -10 -8 -40 -11
-68 -3 -27 -7 -63 -10 -80 -7 -47 -13 -95 -20 -160 -3 -33 -8 -73 -10 -90 -23
-159 -23 -761 0 -920 2 -16 7 -55 9 -85 22 -240 95 -617 166 -860 17 -58 33
-112 35 -120 16 -68 129 -371 176 -477 10 -24 19 -45 19 -49 0 -8 185 -382
221 -444 314 -555 741 -1068 1209 -1451 253 -207 469 -355 755 -518 158 -89
336 -179 470 -235 50 -21 104 -45 120 -52 130 -59 659 -227 710 -225 2 0 19
-5 37 -10 42 -12 261 -58 313 -65 22 -4 49 -7 60 -9 48 -8 260 -35 322 -42
152 -17 946 -8 1063 11 14 3 48 7 75 11 90 11 246 36 315 50 14 3 39 8 55 11
17 2 46 9 65 14 19 5 49 12 65 15 17 3 73 16 125 30 52 14 106 28 119 31 13 3
110 34 215 69 654 218 1242 556 1776 1021 72 63 391 383 445 448 28 32 59 68
70 80 33 35 196 244 262 336 182 254 351 547 492 851 102 221 235 593 285 799
2 8 15 60 29 115 28 110 44 185 67 315 14 81 19 111 24 155 3 22 10 73 16 114
21 147 25 252 25 626 0 335 -7 538 -20 585 -2 8 -6 40 -10 70 -3 30 -9 80 -15
110 -5 30 -12 75 -15 100 -21 151 -111 514 -178 720 -120 364 -304 771 -464
1025 -7 11 -20 34 -29 50 -47 85 -257 387 -351 505 -24 31 -147 177 -197 235
-56 66 -328 340 -391 395 -22 19 -72 62 -110 96 -482 421 -1112 773 -1755 982
-85 28 -166 53 -180 56 -14 3 -56 14 -95 25 -98 27 -344 80 -450 96 -181 27
-242 36 -303 40 -40 4 -81 8 -92 10 -57 11 -624 28 -633 19z m388 -708 c83 -4
168 -8 190 -11 82 -9 151 -16 180 -20 77 -10 164 -24 199 -31 11 -2 35 -6 51
-9 269 -46 662 -169 955 -298 1045 -464 1875 -1316 2306 -2368 74 -182 171
-476 199 -609 2 -8 15 -67 29 -130 14 -63 27 -128 30 -145 3 -16 8 -41 10 -55
6 -27 10 -55 25 -175 16 -122 20 -161 27 -286 13 -194 8 -524 -10 -694 -16
-144 -17 -157 -42 -310 -21 -132 -22 -140 -50 -255 -14 -58 -27 -113 -29 -122
-41 -193 -178 -564 -304 -823 -267 -546 -605 -987 -1086 -1415 -166 -147 -486
-373 -710 -501 -224 -128 -538 -267 -786 -349 -115 -38 -359 -106 -418 -117
-14 -2 -46 -9 -71 -14 -63 -15 -64 -15 -175 -33 -137 -23 -170 -28 -305 -41
-231 -23 -690 -23 -855 0 -16 2 -84 11 -150 20 -66 8 -131 17 -145 20 -27 5
-114 21 -170 30 -58 10 -340 84 -435 115 -623 199 -1195 532 -1660 963 -116
109 -272 268 -340 349 -11 13 -43 50 -71 83 -91 108 -334 442 -334 461 0 3
-13 24 -29 47 -90 133 -253 457 -341 676 -73 183 -177 521 -205 659 -2 9 -10
51 -18 92 -17 80 -42 232 -52 315 -4 28 -8 61 -10 75 -34 224 -33 680 1 990 2
25 7 59 9 75 2 17 7 53 10 80 4 28 8 57 10 65 2 8 7 38 11 65 3 28 8 53 10 56
2 4 6 23 10 44 8 54 62 270 85 345 11 36 22 73 24 82 6 30 77 231 110 313 177
438 417 845 699 1185 146 176 343 379 496 510 58 50 114 99 125 109 99 89 404
299 589 405 417 241 918 427 1373 511 16 3 37 7 48 9 11 2 56 9 100 16 44 6
91 13 105 15 23 4 51 7 185 20 28 3 118 8 200 12 83 3 151 6 152 7 2 1 38 0
248 -8z"/>
<path d="M5148 8475 c-2 -1 -32 -5 -68 -8 -124 -12 -191 -31 -306 -88 -248
-123 -406 -364 -405 -617 0 -42 2 -84 4 -92 34 -140 85 -230 186 -328 173
-169 484 -245 761 -186 73 16 222 74 240 94 3 3 18 12 34 20 49 25 169 145
205 204 104 174 123 330 63 524 -49 156 -168 293 -334 385 -59 33 -187 73
-258 81 -93 11 -119 13 -122 11z"/>
<path d="M7765 7079 c-60 -15 -126 -31 -145 -34 -19 -3 -59 -12 -90 -20 -30
-8 -82 -18 -115 -24 -33 -5 -112 -19 -175 -30 -181 -31 -367 -58 -535 -77 -33
-3 -68 -8 -79 -10 -10 -2 -53 -6 -94 -10 -42 -3 -83 -7 -93 -9 -9 -2 -57 -6
-105 -10 -49 -3 -107 -8 -129 -10 -587 -51 -1463 -63 -2105 -30 -93 5 -262 15
-320 20 -30 3 -84 7 -120 10 -132 11 -186 16 -230 21 -25 3 -65 7 -90 9 -99 9
-156 15 -175 19 -12 2 -48 7 -80 11 -33 4 -71 8 -84 10 -13 3 -45 7 -70 11
-92 12 -398 66 -480 83 -104 23 -166 19 -238 -15 -186 -89 -264 -328 -142
-438 39 -36 74 -49 189 -71 38 -7 70 -14 125 -25 76 -16 120 -24 240 -45 17
-2 41 -7 55 -10 14 -3 45 -8 70 -11 25 -3 47 -7 50 -9 3 -2 29 -6 59 -10 30
-4 63 -9 75 -11 22 -4 285 -40 366 -50 25 -3 59 -7 75 -9 17 -2 57 -7 90 -10
33 -3 76 -8 95 -10 60 -7 214 -22 320 -30 41 -3 100 -8 130 -10 30 -3 100 -7
155 -11 55 -3 103 -8 107 -10 4 -3 6 -19 3 -37 -2 -18 -7 -68 -10 -112 -3 -44
-7 -105 -10 -135 -13 -149 -17 -199 -20 -250 -2 -30 -6 -89 -9 -130 -11 -133
-15 -183 -21 -280 -9 -133 -10 -142 -34 -260 -12 -58 -23 -114 -25 -125 -14
-69 -145 -678 -186 -860 -15 -71 -34 -157 -41 -190 -7 -33 -13 -62 -14 -65
-16 -67 -20 -84 -31 -140 -3 -13 -14 -61 -24 -106 -11 -45 -22 -95 -25 -111
-2 -15 -9 -43 -14 -60 -5 -18 -8 -33 -6 -33 3 0 0 -11 -5 -25 -5 -14 -12 -36
-14 -48 -4 -20 -42 -189 -51 -227 -2 -8 -13 -55 -24 -105 -11 -49 -39 -166
-61 -258 -22 -92 -42 -178 -44 -190 -2 -12 -20 -86 -40 -164 -20 -78 -36 -156
-36 -172 0 -108 140 -206 339 -238 72 -12 240 -8 301 6 78 19 161 65 186 104
12 19 27 60 34 93 6 32 22 106 35 164 23 102 28 123 40 185 3 17 10 46 15 65
5 19 11 46 13 60 3 14 21 104 40 200 20 96 38 186 41 200 2 14 16 84 30 155
14 72 27 141 30 155 2 14 16 86 30 160 14 75 28 151 31 170 3 19 8 42 10 50 2
8 7 34 10 57 2 23 9 63 15 88 6 25 12 60 15 78 2 17 6 41 8 52 3 11 8 43 12
70 5 28 9 52 10 55 0 3 4 26 9 53 l7 47 339 -1 338 -2 7 -46 c4 -25 9 -55 11
-66 1 -11 7 -45 13 -75 6 -30 13 -68 15 -85 8 -52 36 -209 41 -235 3 -14 7
-36 10 -50 21 -122 62 -349 70 -390 3 -14 14 -74 25 -135 11 -60 31 -164 45
-231 13 -67 27 -136 30 -155 3 -19 8 -41 10 -49 2 -8 7 -28 9 -45 3 -16 17
-86 32 -155 14 -69 28 -136 30 -150 3 -14 10 -45 15 -70 6 -25 12 -54 15 -65
36 -186 51 -215 141 -262 66 -36 115 -51 193 -60 243 -30 470 41 534 166 17
31 17 63 1 136 -2 6 -28 118 -58 251 -31 133 -58 252 -61 265 -2 13 -38 175
-80 359 -41 185 -77 347 -80 360 -2 14 -19 90 -36 170 -55 255 -80 371 -115
535 -19 88 -46 214 -60 280 -14 65 -28 133 -31 149 -3 16 -7 32 -9 35 -2 4 -6
25 -9 47 -4 22 -8 49 -11 59 -34 152 -86 424 -90 479 -3 39 -7 105 -10 146 -3
41 -7 102 -10 135 -2 33 -7 96 -10 140 -3 44 -8 100 -10 125 -2 25 -7 83 -10
130 -3 47 -8 105 -10 130 -3 25 -7 77 -10 115 -2 39 -7 96 -10 128 -4 43 -3
57 7 58 7 0 27 2 43 4 17 1 71 6 120 10 179 14 267 22 430 41 47 5 73 8 155
18 19 3 58 7 85 11 28 3 61 8 75 10 14 3 48 7 75 11 28 3 57 8 67 9 9 2 38 7
65 11 26 3 57 8 68 10 77 14 136 24 170 29 22 4 47 8 55 10 8 2 31 7 50 10 31
5 403 81 440 89 121 29 229 60 252 74 130 76 115 301 -29 432 -60 55 -142 90
-206 89 -23 0 -91 -14 -152 -30z"/>
</g>
</svg>
