<svg version="1.1" id="Layer_1" xmlns="http://www.w3.org/2000/svg" xmlns:xlink="http://www.w3.org/1999/xlink" x="0px" y="0px"
	 viewBox="0 0 220 100" style="enable-background:new 0 0 220 100;" xml:space="preserve">
<g>
	<path d="M60.1,52.7c0-16.1-9.9-23-28-23.2c-20.6-0.1-28,9.6-29,21.5h17.8c0.9-4.9,2.6-8.2,10.5-8.2c8.7,0,10.4,4.7,10.4,9.5v4.1
		c-2.2,0-6.3,0-9.6,0C12.4,56.4,0,63.5,0,78.9C0,89.3,6.9,100,23.2,100c12,0,16.6-4.4,19-8.2c0,1.7,0.4,5.3,0.9,6.6H61
		c-0.4-1.6-0.9-11-0.9-17.3V52.7z M41.9,69.6c0,8.9-1.5,17.1-13.4,17.1c-6.7,0-9.7-4.1-9.7-9c0-6.5,4.2-10,15.5-10c2.4,0,6,0,7.6,0
		V69.6z"/>
	<path d="M202.7,0v34.1c-5.2-3-11.2-4.8-17.6-4.8c-8.7,0-16.7,3.2-22.9,8.5l-47.6,39.5l-1.3,1c-3,2.1-6.5,3.3-10.2,3.3
		c-9.7,0-17.6-7.9-17.6-17.5s7.9-17.5,17.6-17.5c5.3,0,10.3,2.4,13.7,6.5l13.5-10.9c-6.7-8.2-16.6-12.9-27.1-12.9
		c-19.3,0-34.9,15.7-34.9,34.8S84,98.8,103.2,98.8c7.5,0,14.6-2.3,20.6-6.7l1.8-1.4l25.1-20.8c2.8,16.5,17.2,29,34.4,29
		c6.4,0,12.4-1.7,17.6-4.8v5.8H220V0H202.7z M185.1,81.8c-9.7,0-17.6-7.9-17.6-17.5c0-9.7,7.9-17.5,17.6-17.5
		c9.7,0,17.6,7.9,17.6,17.5C202.7,73.9,194.8,81.8,185.1,81.8z"/>
	<path d="M144.6,87c-3.2,0-5.9,2.5-5.9,5.7v1.6c0,3.1,2.6,5.7,5.9,5.7s5.9-2.6,5.9-5.7v-1.6C150.5,89.6,147.9,87,144.6,87z"/>
</g>
</svg>
